%TF.GenerationSoftware,KiCad,Pcbnew,(5.1.9-0-10_14)*%
%TF.CreationDate,2021-02-05T19:11:18-05:00*%
%TF.ProjectId,atreus_trackpoint,61747265-7573-45f7-9472-61636b706f69,rev?*%
%TF.SameCoordinates,Original*%
%TF.FileFunction,Legend,Bot*%
%TF.FilePolarity,Positive*%
%FSLAX46Y46*%
G04 Gerber Fmt 4.6, Leading zero omitted, Abs format (unit mm)*
G04 Created by KiCad (PCBNEW (5.1.9-0-10_14)) date 2021-02-05 19:11:18*
%MOMM*%
%LPD*%
G01*
G04 APERTURE LIST*
%ADD10C,0.120000*%
%ADD11C,0.150000*%
G04 APERTURE END LIST*
D10*
%TO.C,C1*%
X93070000Y-87662064D02*
X93070000Y-86457936D01*
X91250000Y-87662064D02*
X91250000Y-86457936D01*
%TO.C,R1*%
X91911422Y-84170000D02*
X92428578Y-84170000D01*
X91911422Y-82750000D02*
X92428578Y-82750000D01*
%TO.C,R2*%
X113948578Y-82790000D02*
X113431422Y-82790000D01*
X113948578Y-84210000D02*
X113431422Y-84210000D01*
%TO.C,R3*%
X91841422Y-91360000D02*
X92358578Y-91360000D01*
X91841422Y-89940000D02*
X92358578Y-89940000D01*
%TO.C,TP2*%
X109270000Y-84050000D02*
X110670000Y-84050000D01*
X110670000Y-84050000D02*
X110670000Y-82650000D01*
X110670000Y-82650000D02*
X109270000Y-82650000D01*
X109270000Y-82650000D02*
X109270000Y-84050000D01*
%TO.C,TP3*%
X102197500Y-91290000D02*
X103597500Y-91290000D01*
X103597500Y-91290000D02*
X103597500Y-89890000D01*
X103597500Y-89890000D02*
X102197500Y-89890000D01*
X102197500Y-89890000D02*
X102197500Y-91290000D01*
%TO.C,TP4*%
X99840000Y-91290000D02*
X101240000Y-91290000D01*
X101240000Y-91290000D02*
X101240000Y-89890000D01*
X101240000Y-89890000D02*
X99840000Y-89890000D01*
X99840000Y-89890000D02*
X99840000Y-91290000D01*
%TO.C,TP5*%
X106912500Y-84050000D02*
X108312500Y-84050000D01*
X108312500Y-84050000D02*
X108312500Y-82650000D01*
X108312500Y-82650000D02*
X106912500Y-82650000D01*
X106912500Y-82650000D02*
X106912500Y-84050000D01*
%TO.C,TP6*%
X104555000Y-84050000D02*
X105955000Y-84050000D01*
X105955000Y-84050000D02*
X105955000Y-82650000D01*
X105955000Y-82650000D02*
X104555000Y-82650000D01*
X104555000Y-82650000D02*
X104555000Y-84050000D01*
%TO.C,TP7*%
X99840000Y-84050000D02*
X101240000Y-84050000D01*
X101240000Y-84050000D02*
X101240000Y-82650000D01*
X101240000Y-82650000D02*
X99840000Y-82650000D01*
X99840000Y-82650000D02*
X99840000Y-84050000D01*
%TO.C,TP8*%
X109270000Y-91290000D02*
X110670000Y-91290000D01*
X110670000Y-91290000D02*
X110670000Y-89890000D01*
X110670000Y-89890000D02*
X109270000Y-89890000D01*
X109270000Y-89890000D02*
X109270000Y-91290000D01*
%TO.C,TP9*%
X102197500Y-84050000D02*
X103597500Y-84050000D01*
X103597500Y-84050000D02*
X103597500Y-82650000D01*
X103597500Y-82650000D02*
X102197500Y-82650000D01*
X102197500Y-82650000D02*
X102197500Y-84050000D01*
%TO.C,TP10*%
X106912500Y-91290000D02*
X108312500Y-91290000D01*
X108312500Y-91290000D02*
X108312500Y-89890000D01*
X108312500Y-89890000D02*
X106912500Y-89890000D01*
X106912500Y-89890000D02*
X106912500Y-91290000D01*
%TO.C,TP11*%
X104555000Y-91290000D02*
X105955000Y-91290000D01*
X105955000Y-91290000D02*
X105955000Y-89890000D01*
X105955000Y-89890000D02*
X104555000Y-89890000D01*
X104555000Y-89890000D02*
X104555000Y-91290000D01*
%TO.C,U1*%
X84990000Y-86958180D02*
X84990000Y-88838180D01*
X84990000Y-86958180D02*
X84990000Y-85078180D01*
X79810000Y-86958180D02*
X79810000Y-88838180D01*
X79810000Y-86958180D02*
X79810000Y-83433180D01*
%TO.C,U2*%
X130070000Y-86958180D02*
X130070000Y-88838180D01*
X130070000Y-86958180D02*
X130070000Y-85078180D01*
X124890000Y-86958180D02*
X124890000Y-88838180D01*
X124890000Y-86958180D02*
X124890000Y-83433180D01*
%TO.C,C1*%
D11*
X94337142Y-86893333D02*
X94384761Y-86845714D01*
X94432380Y-86702857D01*
X94432380Y-86607619D01*
X94384761Y-86464761D01*
X94289523Y-86369523D01*
X94194285Y-86321904D01*
X94003809Y-86274285D01*
X93860952Y-86274285D01*
X93670476Y-86321904D01*
X93575238Y-86369523D01*
X93480000Y-86464761D01*
X93432380Y-86607619D01*
X93432380Y-86702857D01*
X93480000Y-86845714D01*
X93527619Y-86893333D01*
X94432380Y-87845714D02*
X94432380Y-87274285D01*
X94432380Y-87560000D02*
X93432380Y-87560000D01*
X93575238Y-87464761D01*
X93670476Y-87369523D01*
X93718095Y-87274285D01*
%TO.C,R1*%
X92336666Y-85562380D02*
X92670000Y-85086190D01*
X92908095Y-85562380D02*
X92908095Y-84562380D01*
X92527142Y-84562380D01*
X92431904Y-84610000D01*
X92384285Y-84657619D01*
X92336666Y-84752857D01*
X92336666Y-84895714D01*
X92384285Y-84990952D01*
X92431904Y-85038571D01*
X92527142Y-85086190D01*
X92908095Y-85086190D01*
X91384285Y-85562380D02*
X91955714Y-85562380D01*
X91670000Y-85562380D02*
X91670000Y-84562380D01*
X91765238Y-84705238D01*
X91860476Y-84800476D01*
X91955714Y-84848095D01*
%TO.C,R2*%
X113856666Y-82302380D02*
X114190000Y-81826190D01*
X114428095Y-82302380D02*
X114428095Y-81302380D01*
X114047142Y-81302380D01*
X113951904Y-81350000D01*
X113904285Y-81397619D01*
X113856666Y-81492857D01*
X113856666Y-81635714D01*
X113904285Y-81730952D01*
X113951904Y-81778571D01*
X114047142Y-81826190D01*
X114428095Y-81826190D01*
X113475714Y-81397619D02*
X113428095Y-81350000D01*
X113332857Y-81302380D01*
X113094761Y-81302380D01*
X112999523Y-81350000D01*
X112951904Y-81397619D01*
X112904285Y-81492857D01*
X112904285Y-81588095D01*
X112951904Y-81730952D01*
X113523333Y-82302380D01*
X112904285Y-82302380D01*
%TO.C,R3*%
X92266666Y-92752380D02*
X92600000Y-92276190D01*
X92838095Y-92752380D02*
X92838095Y-91752380D01*
X92457142Y-91752380D01*
X92361904Y-91800000D01*
X92314285Y-91847619D01*
X92266666Y-91942857D01*
X92266666Y-92085714D01*
X92314285Y-92180952D01*
X92361904Y-92228571D01*
X92457142Y-92276190D01*
X92838095Y-92276190D01*
X91933333Y-91752380D02*
X91314285Y-91752380D01*
X91647619Y-92133333D01*
X91504761Y-92133333D01*
X91409523Y-92180952D01*
X91361904Y-92228571D01*
X91314285Y-92323809D01*
X91314285Y-92561904D01*
X91361904Y-92657142D01*
X91409523Y-92704761D01*
X91504761Y-92752380D01*
X91790476Y-92752380D01*
X91885714Y-92704761D01*
X91933333Y-92657142D01*
%TO.C,TP2*%
X111231904Y-84250380D02*
X110660476Y-84250380D01*
X110946190Y-85250380D02*
X110946190Y-84250380D01*
X110327142Y-85250380D02*
X110327142Y-84250380D01*
X109946190Y-84250380D01*
X109850952Y-84298000D01*
X109803333Y-84345619D01*
X109755714Y-84440857D01*
X109755714Y-84583714D01*
X109803333Y-84678952D01*
X109850952Y-84726571D01*
X109946190Y-84774190D01*
X110327142Y-84774190D01*
X109374761Y-84345619D02*
X109327142Y-84298000D01*
X109231904Y-84250380D01*
X108993809Y-84250380D01*
X108898571Y-84298000D01*
X108850952Y-84345619D01*
X108803333Y-84440857D01*
X108803333Y-84536095D01*
X108850952Y-84678952D01*
X109422380Y-85250380D01*
X108803333Y-85250380D01*
%TO.C,TP3*%
X104159404Y-91490380D02*
X103587976Y-91490380D01*
X103873690Y-92490380D02*
X103873690Y-91490380D01*
X103254642Y-92490380D02*
X103254642Y-91490380D01*
X102873690Y-91490380D01*
X102778452Y-91538000D01*
X102730833Y-91585619D01*
X102683214Y-91680857D01*
X102683214Y-91823714D01*
X102730833Y-91918952D01*
X102778452Y-91966571D01*
X102873690Y-92014190D01*
X103254642Y-92014190D01*
X102349880Y-91490380D02*
X101730833Y-91490380D01*
X102064166Y-91871333D01*
X101921309Y-91871333D01*
X101826071Y-91918952D01*
X101778452Y-91966571D01*
X101730833Y-92061809D01*
X101730833Y-92299904D01*
X101778452Y-92395142D01*
X101826071Y-92442761D01*
X101921309Y-92490380D01*
X102207023Y-92490380D01*
X102302261Y-92442761D01*
X102349880Y-92395142D01*
%TO.C,TP4*%
X101801904Y-91490380D02*
X101230476Y-91490380D01*
X101516190Y-92490380D02*
X101516190Y-91490380D01*
X100897142Y-92490380D02*
X100897142Y-91490380D01*
X100516190Y-91490380D01*
X100420952Y-91538000D01*
X100373333Y-91585619D01*
X100325714Y-91680857D01*
X100325714Y-91823714D01*
X100373333Y-91918952D01*
X100420952Y-91966571D01*
X100516190Y-92014190D01*
X100897142Y-92014190D01*
X99468571Y-91823714D02*
X99468571Y-92490380D01*
X99706666Y-91442761D02*
X99944761Y-92157047D01*
X99325714Y-92157047D01*
%TO.C,TP5*%
X108874404Y-84250380D02*
X108302976Y-84250380D01*
X108588690Y-85250380D02*
X108588690Y-84250380D01*
X107969642Y-85250380D02*
X107969642Y-84250380D01*
X107588690Y-84250380D01*
X107493452Y-84298000D01*
X107445833Y-84345619D01*
X107398214Y-84440857D01*
X107398214Y-84583714D01*
X107445833Y-84678952D01*
X107493452Y-84726571D01*
X107588690Y-84774190D01*
X107969642Y-84774190D01*
X106493452Y-84250380D02*
X106969642Y-84250380D01*
X107017261Y-84726571D01*
X106969642Y-84678952D01*
X106874404Y-84631333D01*
X106636309Y-84631333D01*
X106541071Y-84678952D01*
X106493452Y-84726571D01*
X106445833Y-84821809D01*
X106445833Y-85059904D01*
X106493452Y-85155142D01*
X106541071Y-85202761D01*
X106636309Y-85250380D01*
X106874404Y-85250380D01*
X106969642Y-85202761D01*
X107017261Y-85155142D01*
%TO.C,TP6*%
X106516904Y-84250380D02*
X105945476Y-84250380D01*
X106231190Y-85250380D02*
X106231190Y-84250380D01*
X105612142Y-85250380D02*
X105612142Y-84250380D01*
X105231190Y-84250380D01*
X105135952Y-84298000D01*
X105088333Y-84345619D01*
X105040714Y-84440857D01*
X105040714Y-84583714D01*
X105088333Y-84678952D01*
X105135952Y-84726571D01*
X105231190Y-84774190D01*
X105612142Y-84774190D01*
X104183571Y-84250380D02*
X104374047Y-84250380D01*
X104469285Y-84298000D01*
X104516904Y-84345619D01*
X104612142Y-84488476D01*
X104659761Y-84678952D01*
X104659761Y-85059904D01*
X104612142Y-85155142D01*
X104564523Y-85202761D01*
X104469285Y-85250380D01*
X104278809Y-85250380D01*
X104183571Y-85202761D01*
X104135952Y-85155142D01*
X104088333Y-85059904D01*
X104088333Y-84821809D01*
X104135952Y-84726571D01*
X104183571Y-84678952D01*
X104278809Y-84631333D01*
X104469285Y-84631333D01*
X104564523Y-84678952D01*
X104612142Y-84726571D01*
X104659761Y-84821809D01*
%TO.C,TP7*%
X101801904Y-84250380D02*
X101230476Y-84250380D01*
X101516190Y-85250380D02*
X101516190Y-84250380D01*
X100897142Y-85250380D02*
X100897142Y-84250380D01*
X100516190Y-84250380D01*
X100420952Y-84298000D01*
X100373333Y-84345619D01*
X100325714Y-84440857D01*
X100325714Y-84583714D01*
X100373333Y-84678952D01*
X100420952Y-84726571D01*
X100516190Y-84774190D01*
X100897142Y-84774190D01*
X99992380Y-84250380D02*
X99325714Y-84250380D01*
X99754285Y-85250380D01*
%TO.C,TP8*%
X111231904Y-91490380D02*
X110660476Y-91490380D01*
X110946190Y-92490380D02*
X110946190Y-91490380D01*
X110327142Y-92490380D02*
X110327142Y-91490380D01*
X109946190Y-91490380D01*
X109850952Y-91538000D01*
X109803333Y-91585619D01*
X109755714Y-91680857D01*
X109755714Y-91823714D01*
X109803333Y-91918952D01*
X109850952Y-91966571D01*
X109946190Y-92014190D01*
X110327142Y-92014190D01*
X109184285Y-91918952D02*
X109279523Y-91871333D01*
X109327142Y-91823714D01*
X109374761Y-91728476D01*
X109374761Y-91680857D01*
X109327142Y-91585619D01*
X109279523Y-91538000D01*
X109184285Y-91490380D01*
X108993809Y-91490380D01*
X108898571Y-91538000D01*
X108850952Y-91585619D01*
X108803333Y-91680857D01*
X108803333Y-91728476D01*
X108850952Y-91823714D01*
X108898571Y-91871333D01*
X108993809Y-91918952D01*
X109184285Y-91918952D01*
X109279523Y-91966571D01*
X109327142Y-92014190D01*
X109374761Y-92109428D01*
X109374761Y-92299904D01*
X109327142Y-92395142D01*
X109279523Y-92442761D01*
X109184285Y-92490380D01*
X108993809Y-92490380D01*
X108898571Y-92442761D01*
X108850952Y-92395142D01*
X108803333Y-92299904D01*
X108803333Y-92109428D01*
X108850952Y-92014190D01*
X108898571Y-91966571D01*
X108993809Y-91918952D01*
%TO.C,TP9*%
X104159404Y-84250380D02*
X103587976Y-84250380D01*
X103873690Y-85250380D02*
X103873690Y-84250380D01*
X103254642Y-85250380D02*
X103254642Y-84250380D01*
X102873690Y-84250380D01*
X102778452Y-84298000D01*
X102730833Y-84345619D01*
X102683214Y-84440857D01*
X102683214Y-84583714D01*
X102730833Y-84678952D01*
X102778452Y-84726571D01*
X102873690Y-84774190D01*
X103254642Y-84774190D01*
X102207023Y-85250380D02*
X102016547Y-85250380D01*
X101921309Y-85202761D01*
X101873690Y-85155142D01*
X101778452Y-85012285D01*
X101730833Y-84821809D01*
X101730833Y-84440857D01*
X101778452Y-84345619D01*
X101826071Y-84298000D01*
X101921309Y-84250380D01*
X102111785Y-84250380D01*
X102207023Y-84298000D01*
X102254642Y-84345619D01*
X102302261Y-84440857D01*
X102302261Y-84678952D01*
X102254642Y-84774190D01*
X102207023Y-84821809D01*
X102111785Y-84869428D01*
X101921309Y-84869428D01*
X101826071Y-84821809D01*
X101778452Y-84774190D01*
X101730833Y-84678952D01*
%TO.C,TP10*%
X109350595Y-91490380D02*
X108779166Y-91490380D01*
X109064880Y-92490380D02*
X109064880Y-91490380D01*
X108445833Y-92490380D02*
X108445833Y-91490380D01*
X108064880Y-91490380D01*
X107969642Y-91538000D01*
X107922023Y-91585619D01*
X107874404Y-91680857D01*
X107874404Y-91823714D01*
X107922023Y-91918952D01*
X107969642Y-91966571D01*
X108064880Y-92014190D01*
X108445833Y-92014190D01*
X106922023Y-92490380D02*
X107493452Y-92490380D01*
X107207738Y-92490380D02*
X107207738Y-91490380D01*
X107302976Y-91633238D01*
X107398214Y-91728476D01*
X107493452Y-91776095D01*
X106302976Y-91490380D02*
X106207738Y-91490380D01*
X106112500Y-91538000D01*
X106064880Y-91585619D01*
X106017261Y-91680857D01*
X105969642Y-91871333D01*
X105969642Y-92109428D01*
X106017261Y-92299904D01*
X106064880Y-92395142D01*
X106112500Y-92442761D01*
X106207738Y-92490380D01*
X106302976Y-92490380D01*
X106398214Y-92442761D01*
X106445833Y-92395142D01*
X106493452Y-92299904D01*
X106541071Y-92109428D01*
X106541071Y-91871333D01*
X106493452Y-91680857D01*
X106445833Y-91585619D01*
X106398214Y-91538000D01*
X106302976Y-91490380D01*
%TO.C,TP11*%
X106993095Y-91490380D02*
X106421666Y-91490380D01*
X106707380Y-92490380D02*
X106707380Y-91490380D01*
X106088333Y-92490380D02*
X106088333Y-91490380D01*
X105707380Y-91490380D01*
X105612142Y-91538000D01*
X105564523Y-91585619D01*
X105516904Y-91680857D01*
X105516904Y-91823714D01*
X105564523Y-91918952D01*
X105612142Y-91966571D01*
X105707380Y-92014190D01*
X106088333Y-92014190D01*
X104564523Y-92490380D02*
X105135952Y-92490380D01*
X104850238Y-92490380D02*
X104850238Y-91490380D01*
X104945476Y-91633238D01*
X105040714Y-91728476D01*
X105135952Y-91776095D01*
X103612142Y-92490380D02*
X104183571Y-92490380D01*
X103897857Y-92490380D02*
X103897857Y-91490380D01*
X103993095Y-91633238D01*
X104088333Y-91728476D01*
X104183571Y-91776095D01*
%TO.C,U1*%
X78422380Y-86196275D02*
X79231904Y-86196275D01*
X79327142Y-86243894D01*
X79374761Y-86291513D01*
X79422380Y-86386751D01*
X79422380Y-86577227D01*
X79374761Y-86672465D01*
X79327142Y-86720084D01*
X79231904Y-86767703D01*
X78422380Y-86767703D01*
X79422380Y-87767703D02*
X79422380Y-87196275D01*
X79422380Y-87481989D02*
X78422380Y-87481989D01*
X78565238Y-87386751D01*
X78660476Y-87291513D01*
X78708095Y-87196275D01*
%TO.C,U2*%
X123502380Y-86196275D02*
X124311904Y-86196275D01*
X124407142Y-86243894D01*
X124454761Y-86291513D01*
X124502380Y-86386751D01*
X124502380Y-86577227D01*
X124454761Y-86672465D01*
X124407142Y-86720084D01*
X124311904Y-86767703D01*
X123502380Y-86767703D01*
X123597619Y-87196275D02*
X123550000Y-87243894D01*
X123502380Y-87339132D01*
X123502380Y-87577227D01*
X123550000Y-87672465D01*
X123597619Y-87720084D01*
X123692857Y-87767703D01*
X123788095Y-87767703D01*
X123930952Y-87720084D01*
X124502380Y-87148656D01*
X124502380Y-87767703D01*
%TD*%
M02*
