M48
; DRILL file {KiCad (5.1.9-0-10_14)} date Friday, February 05, 2021 at 07:11:08 PM
; FORMAT={-:-/ absolute / inch / decimal}
; #@! TF.CreationDate,2021-02-05T19:11:08-05:00
; #@! TF.GenerationSoftware,Kicad,Pcbnew,(5.1.9-0-10_14)
; #@! TF.FileFunction,Plated,1,2,PTH
FMAT,2
INCH
T1C0.0157
T2C0.0354
%
G90
G05
T1
X3.2823Y-3.5898
X3.3191Y-3.5235
X3.3449Y-3.2976
X3.5303Y-3.2573
X3.5413Y-3.552
X3.6283Y-3.4827
X3.713Y-3.5524
X3.8Y-3.3533
X3.8555Y-3.2602
X3.885Y-3.552
X3.9047Y-3.2913
X3.9496Y-3.3248
X3.9555Y-3.5445
X3.985Y-3.4295
X3.9866Y-3.5116
X4.0185Y-3.298
X4.0205Y-3.5472
X4.0736Y-3.5116
X4.1323Y-3.3161
X4.1567Y-3.537
X4.3508Y-3.2957
X4.3559Y-3.5547
X4.5129Y-3.2874
X4.6169Y-3.4311
X4.6173Y-3.526
X4.8551Y-3.5307
X4.9193Y-3.4057
X5.0835Y-3.4028
T2
X3.4087Y-3.4254
X3.5088Y-3.4254
X3.7447Y-3.4254
X3.8447Y-3.4254
X4.0807Y-3.4254
X4.1806Y-3.4254
X4.4166Y-3.4254
X4.5166Y-3.4254
X4.7526Y-3.4254
X4.8525Y-3.4254
T0
M30
