%TF.GenerationSoftware,KiCad,Pcbnew,(5.1.9-0-10_14)*%
%TF.CreationDate,2021-02-05T19:11:18-05:00*%
%TF.ProjectId,atreus_trackpoint,61747265-7573-45f7-9472-61636b706f69,rev?*%
%TF.SameCoordinates,Original*%
%TF.FileFunction,Copper,L1,Top*%
%TF.FilePolarity,Positive*%
%FSLAX46Y46*%
G04 Gerber Fmt 4.6, Leading zero omitted, Abs format (unit mm)*
G04 Created by KiCad (PCBNEW (5.1.9-0-10_14)) date 2021-02-05 19:11:18*
%MOMM*%
%LPD*%
G01*
G04 APERTURE LIST*
%TA.AperFunction,ComponentPad*%
%ADD10C,1.800000*%
%TD*%
%TA.AperFunction,ComponentPad*%
%ADD11R,1.800000X1.800000*%
%TD*%
%TA.AperFunction,ViaPad*%
%ADD12C,0.800000*%
%TD*%
%TA.AperFunction,Conductor*%
%ADD13C,0.250000*%
%TD*%
%TA.AperFunction,Conductor*%
%ADD14C,0.254000*%
%TD*%
%TA.AperFunction,Conductor*%
%ADD15C,0.100000*%
%TD*%
G04 APERTURE END LIST*
D10*
%TO.P,D1,2*%
%TO.N,VCC*%
X89122250Y-87003900D03*
D11*
%TO.P,D1,1*%
%TO.N,Net-(D1-Pad1)*%
X86582250Y-87003900D03*
%TD*%
D10*
%TO.P,D2,2*%
%TO.N,VCC*%
X97655380Y-87003900D03*
D11*
%TO.P,D2,1*%
%TO.N,Net-(D2-Pad1)*%
X95115380Y-87003900D03*
%TD*%
D10*
%TO.P,D3,2*%
%TO.N,VCC*%
X106188510Y-87003900D03*
D11*
%TO.P,D3,1*%
%TO.N,Net-(D3-Pad1)*%
X103648510Y-87003900D03*
%TD*%
D10*
%TO.P,D4,2*%
%TO.N,VCC*%
X114721640Y-87003900D03*
D11*
%TO.P,D4,1*%
%TO.N,Net-(D4-Pad1)*%
X112181640Y-87003900D03*
%TD*%
D10*
%TO.P,D5,2*%
%TO.N,VCC*%
X123254770Y-87003900D03*
D11*
%TO.P,D5,1*%
%TO.N,Net-(D5-Pad1)*%
X120714770Y-87003900D03*
%TD*%
D12*
%TO.N,RST*%
X100470000Y-90030000D03*
X100320000Y-84450002D03*
%TO.N,Net-(D3-Pad1)*%
X89670000Y-82735000D03*
X96520000Y-85175002D03*
%TO.N,GND*%
X129120000Y-86430000D03*
X104960000Y-84230000D03*
X105580000Y-89840000D03*
X84960000Y-83760000D03*
X97930000Y-82810000D03*
X124950000Y-86503899D03*
%TO.N,CLK*%
X110510000Y-83710000D03*
X110640000Y-90290000D03*
%TO.N,DATA*%
X102070000Y-83770000D03*
X102120000Y-90100000D03*
%TO.N,LED*%
X99180000Y-83600000D03*
X98680000Y-90220680D03*
X94310000Y-90230000D03*
X83370000Y-91180000D03*
%TO.N,Net-(U1-Pad5)*%
X84305000Y-89495680D03*
%TO.N,VCC*%
X117280000Y-89560000D03*
X117270000Y-87150000D03*
X114627500Y-83500000D03*
X103470000Y-89193746D03*
X101260000Y-89193746D03*
X101220000Y-87110000D03*
X89950000Y-90220680D03*
X92160000Y-88460000D03*
X123320000Y-89680000D03*
%TD*%
D13*
%TO.N,RST*%
X100470000Y-84600002D02*
X100320000Y-84450002D01*
X100470000Y-90030000D02*
X100470000Y-84600002D01*
%TO.N,Net-(D3-Pad1)*%
X94079998Y-82735000D02*
X96520000Y-85175002D01*
X89670000Y-82735000D02*
X94079998Y-82735000D01*
%TO.N,GND*%
X129120000Y-86430000D02*
X128460000Y-87090000D01*
X121221100Y-82774999D02*
X112975001Y-82774999D01*
X124950000Y-86503899D02*
X121221100Y-82774999D01*
%TO.N,CLK*%
X110510000Y-90160000D02*
X110640000Y-90290000D01*
X110510000Y-83710000D02*
X110510000Y-90160000D01*
%TO.N,DATA*%
X102070000Y-90050000D02*
X102120000Y-90100000D01*
X102070000Y-83770000D02*
X102070000Y-90050000D01*
%TO.N,LED*%
X99010000Y-83770000D02*
X99180000Y-83600000D01*
X99180000Y-89720680D02*
X98680000Y-90220680D01*
X99180000Y-83600000D02*
X99180000Y-89720680D01*
X93360000Y-91180000D02*
X83370000Y-91180000D01*
X94310000Y-90230000D02*
X93360000Y-91180000D01*
%TO.N,VCC*%
X117280000Y-87160000D02*
X117270000Y-87150000D01*
X117280000Y-89560000D02*
X117280000Y-87160000D01*
X123330000Y-87079130D02*
X123254770Y-87003900D01*
X114867740Y-87150000D02*
X114721640Y-87003900D01*
X117270000Y-87150000D02*
X114867740Y-87150000D01*
X114721640Y-83594140D02*
X114627500Y-83500000D01*
X114721640Y-87003900D02*
X114721640Y-83594140D01*
X103998664Y-89193746D02*
X103470000Y-89193746D01*
X106188510Y-87003900D02*
X103998664Y-89193746D01*
X101260000Y-87150000D02*
X101220000Y-87110000D01*
X101260000Y-89193746D02*
X101260000Y-87150000D01*
X91710680Y-88460000D02*
X92160000Y-88460000D01*
X89950000Y-90220680D02*
X91710680Y-88460000D01*
X123320000Y-87069130D02*
X123254770Y-87003900D01*
X123320000Y-89680000D02*
X123320000Y-87069130D01*
%TD*%
D14*
%TO.N,GND*%
X88635000Y-82633061D02*
X88635000Y-82836939D01*
X88674774Y-83036898D01*
X88752795Y-83225256D01*
X88866063Y-83394774D01*
X89010226Y-83538937D01*
X89179744Y-83652205D01*
X89368102Y-83730226D01*
X89568061Y-83770000D01*
X89771939Y-83770000D01*
X89971898Y-83730226D01*
X90160256Y-83652205D01*
X90329774Y-83538937D01*
X90373711Y-83495000D01*
X93765197Y-83495000D01*
X95485000Y-85214804D01*
X95485000Y-85276941D01*
X95522572Y-85465828D01*
X94215380Y-85465828D01*
X94090898Y-85478088D01*
X93971200Y-85514398D01*
X93860886Y-85573363D01*
X93764195Y-85652715D01*
X93684843Y-85749406D01*
X93625878Y-85859720D01*
X93589568Y-85979418D01*
X93577308Y-86103900D01*
X93577308Y-87903900D01*
X93589568Y-88028382D01*
X93625878Y-88148080D01*
X93684843Y-88258394D01*
X93764195Y-88355085D01*
X93860886Y-88434437D01*
X93971200Y-88493402D01*
X94090898Y-88529712D01*
X94215380Y-88541972D01*
X96015380Y-88541972D01*
X96139862Y-88529712D01*
X96259560Y-88493402D01*
X96369874Y-88434437D01*
X96466565Y-88355085D01*
X96545917Y-88258394D01*
X96604882Y-88148080D01*
X96610436Y-88129773D01*
X96676875Y-88196212D01*
X96928285Y-88364199D01*
X97207637Y-88479911D01*
X97504196Y-88538900D01*
X97806564Y-88538900D01*
X98103123Y-88479911D01*
X98382475Y-88364199D01*
X98420001Y-88339125D01*
X98420001Y-89217120D01*
X98378102Y-89225454D01*
X98189744Y-89303475D01*
X98020226Y-89416743D01*
X97876063Y-89560906D01*
X97762795Y-89730424D01*
X97684774Y-89918782D01*
X97645000Y-90118741D01*
X97645000Y-90322619D01*
X97684774Y-90522578D01*
X97762795Y-90710936D01*
X97876063Y-90880454D01*
X98020226Y-91024617D01*
X98189744Y-91137885D01*
X98378102Y-91215906D01*
X98578061Y-91255680D01*
X98781939Y-91255680D01*
X98981898Y-91215906D01*
X99170256Y-91137885D01*
X99339774Y-91024617D01*
X99483937Y-90880454D01*
X99597205Y-90710936D01*
X99628967Y-90634256D01*
X99666063Y-90689774D01*
X99810226Y-90833937D01*
X99979744Y-90947205D01*
X100168102Y-91025226D01*
X100368061Y-91065000D01*
X100571939Y-91065000D01*
X100771898Y-91025226D01*
X100960256Y-90947205D01*
X101129774Y-90833937D01*
X101271152Y-90692559D01*
X101316063Y-90759774D01*
X101460226Y-90903937D01*
X101629744Y-91017205D01*
X101818102Y-91095226D01*
X102018061Y-91135000D01*
X102221939Y-91135000D01*
X102421898Y-91095226D01*
X102610256Y-91017205D01*
X102779774Y-90903937D01*
X102923937Y-90759774D01*
X103037205Y-90590256D01*
X103115226Y-90401898D01*
X103155000Y-90201939D01*
X103155000Y-90183545D01*
X103168102Y-90188972D01*
X103368061Y-90228746D01*
X103571939Y-90228746D01*
X103771898Y-90188972D01*
X103960256Y-90110951D01*
X104129774Y-89997683D01*
X104200844Y-89926613D01*
X104290911Y-89899292D01*
X104422940Y-89828720D01*
X104538665Y-89733747D01*
X104562468Y-89704743D01*
X105779580Y-88487631D01*
X106037326Y-88538900D01*
X106339694Y-88538900D01*
X106636253Y-88479911D01*
X106915605Y-88364199D01*
X107167015Y-88196212D01*
X107380822Y-87982405D01*
X107548809Y-87730995D01*
X107664521Y-87451643D01*
X107723510Y-87155084D01*
X107723510Y-86852716D01*
X107664521Y-86556157D01*
X107548809Y-86276805D01*
X107380822Y-86025395D01*
X107167015Y-85811588D01*
X106915605Y-85643601D01*
X106636253Y-85527889D01*
X106339694Y-85468900D01*
X106037326Y-85468900D01*
X105740767Y-85527889D01*
X105461415Y-85643601D01*
X105210005Y-85811588D01*
X105143566Y-85878027D01*
X105138012Y-85859720D01*
X105079047Y-85749406D01*
X104999695Y-85652715D01*
X104903004Y-85573363D01*
X104792690Y-85514398D01*
X104672992Y-85478088D01*
X104548510Y-85465828D01*
X102830000Y-85465828D01*
X102830000Y-84473711D01*
X102873937Y-84429774D01*
X102987205Y-84260256D01*
X103065226Y-84071898D01*
X103105000Y-83871939D01*
X103105000Y-83668061D01*
X103065226Y-83468102D01*
X102987205Y-83279744D01*
X102873937Y-83110226D01*
X102729774Y-82966063D01*
X102560256Y-82852795D01*
X102371898Y-82774774D01*
X102171939Y-82735000D01*
X101968061Y-82735000D01*
X101768102Y-82774774D01*
X101579744Y-82852795D01*
X101410226Y-82966063D01*
X101266063Y-83110226D01*
X101152795Y-83279744D01*
X101074774Y-83468102D01*
X101035000Y-83668061D01*
X101035000Y-83701291D01*
X100979774Y-83646065D01*
X100810256Y-83532797D01*
X100621898Y-83454776D01*
X100421939Y-83415002D01*
X100218061Y-83415002D01*
X100199224Y-83418749D01*
X100175226Y-83298102D01*
X100097205Y-83109744D01*
X99983937Y-82940226D01*
X99839774Y-82796063D01*
X99670256Y-82682795D01*
X99514263Y-82618180D01*
X114084286Y-82618180D01*
X113967726Y-82696063D01*
X113823563Y-82840226D01*
X113710295Y-83009744D01*
X113632274Y-83198102D01*
X113592500Y-83398061D01*
X113592500Y-83601939D01*
X113632274Y-83801898D01*
X113710295Y-83990256D01*
X113823563Y-84159774D01*
X113961641Y-84297852D01*
X113961640Y-85665587D01*
X113743135Y-85811588D01*
X113676696Y-85878027D01*
X113671142Y-85859720D01*
X113612177Y-85749406D01*
X113532825Y-85652715D01*
X113436134Y-85573363D01*
X113325820Y-85514398D01*
X113206122Y-85478088D01*
X113081640Y-85465828D01*
X111281640Y-85465828D01*
X111270000Y-85466974D01*
X111270000Y-84413711D01*
X111313937Y-84369774D01*
X111427205Y-84200256D01*
X111505226Y-84011898D01*
X111545000Y-83811939D01*
X111545000Y-83608061D01*
X111505226Y-83408102D01*
X111427205Y-83219744D01*
X111313937Y-83050226D01*
X111169774Y-82906063D01*
X111000256Y-82792795D01*
X110811898Y-82714774D01*
X110611939Y-82675000D01*
X110408061Y-82675000D01*
X110208102Y-82714774D01*
X110019744Y-82792795D01*
X109850226Y-82906063D01*
X109706063Y-83050226D01*
X109592795Y-83219744D01*
X109514774Y-83408102D01*
X109475000Y-83608061D01*
X109475000Y-83811939D01*
X109514774Y-84011898D01*
X109592795Y-84200256D01*
X109706063Y-84369774D01*
X109750000Y-84413711D01*
X109750001Y-89759027D01*
X109722795Y-89799744D01*
X109644774Y-89988102D01*
X109605000Y-90188061D01*
X109605000Y-90391939D01*
X109644774Y-90591898D01*
X109722795Y-90780256D01*
X109836063Y-90949774D01*
X109980226Y-91093937D01*
X110149744Y-91207205D01*
X110338102Y-91285226D01*
X110403168Y-91298168D01*
X94316627Y-91298175D01*
X94349801Y-91265000D01*
X94411939Y-91265000D01*
X94611898Y-91225226D01*
X94800256Y-91147205D01*
X94969774Y-91033937D01*
X95113937Y-90889774D01*
X95227205Y-90720256D01*
X95305226Y-90531898D01*
X95345000Y-90331939D01*
X95345000Y-90128061D01*
X95305226Y-89928102D01*
X95227205Y-89739744D01*
X95113937Y-89570226D01*
X94969774Y-89426063D01*
X94800256Y-89312795D01*
X94611898Y-89234774D01*
X94411939Y-89195000D01*
X94208061Y-89195000D01*
X94008102Y-89234774D01*
X93819744Y-89312795D01*
X93650226Y-89426063D01*
X93506063Y-89570226D01*
X93392795Y-89739744D01*
X93314774Y-89928102D01*
X93275000Y-90128061D01*
X93275000Y-90190199D01*
X93045199Y-90420000D01*
X90965630Y-90420000D01*
X90985000Y-90322619D01*
X90985000Y-90260481D01*
X91810128Y-89435354D01*
X91858102Y-89455226D01*
X92058061Y-89495000D01*
X92261939Y-89495000D01*
X92461898Y-89455226D01*
X92650256Y-89377205D01*
X92819774Y-89263937D01*
X92963937Y-89119774D01*
X93077205Y-88950256D01*
X93155226Y-88761898D01*
X93195000Y-88561939D01*
X93195000Y-88358061D01*
X93155226Y-88158102D01*
X93077205Y-87969744D01*
X92963937Y-87800226D01*
X92819774Y-87656063D01*
X92650256Y-87542795D01*
X92461898Y-87464774D01*
X92261939Y-87425000D01*
X92058061Y-87425000D01*
X91858102Y-87464774D01*
X91669744Y-87542795D01*
X91500226Y-87656063D01*
X91382775Y-87773514D01*
X91286404Y-87825026D01*
X91170679Y-87919999D01*
X91146881Y-87948997D01*
X89910199Y-89185680D01*
X89848061Y-89185680D01*
X89648102Y-89225454D01*
X89459744Y-89303475D01*
X89290226Y-89416743D01*
X89146063Y-89560906D01*
X89032795Y-89730424D01*
X88954774Y-89918782D01*
X88915000Y-90118741D01*
X88915000Y-90322619D01*
X88934370Y-90420000D01*
X84778079Y-90420000D01*
X84795256Y-90412885D01*
X84964774Y-90299617D01*
X85108937Y-90155454D01*
X85222205Y-89985936D01*
X85300226Y-89797578D01*
X85340000Y-89597619D01*
X85340000Y-89393741D01*
X85300226Y-89193782D01*
X85222205Y-89005424D01*
X85108937Y-88835906D01*
X84964774Y-88691743D01*
X84795256Y-88578475D01*
X84606898Y-88500454D01*
X84406939Y-88460680D01*
X84203061Y-88460680D01*
X84003102Y-88500454D01*
X83814744Y-88578475D01*
X83645226Y-88691743D01*
X83501063Y-88835906D01*
X83387795Y-89005424D01*
X83309774Y-89193782D01*
X83270000Y-89393741D01*
X83270000Y-89597619D01*
X83309774Y-89797578D01*
X83387795Y-89985936D01*
X83497471Y-90150079D01*
X83471939Y-90145000D01*
X83268061Y-90145000D01*
X83068102Y-90184774D01*
X82879744Y-90262795D01*
X82710226Y-90376063D01*
X82566063Y-90520226D01*
X82452795Y-90689744D01*
X82374774Y-90878102D01*
X82335000Y-91078061D01*
X82335000Y-91281939D01*
X82338230Y-91298180D01*
X79966420Y-91298181D01*
X79966420Y-86103900D01*
X85044178Y-86103900D01*
X85044178Y-87903900D01*
X85056438Y-88028382D01*
X85092748Y-88148080D01*
X85151713Y-88258394D01*
X85231065Y-88355085D01*
X85327756Y-88434437D01*
X85438070Y-88493402D01*
X85557768Y-88529712D01*
X85682250Y-88541972D01*
X87482250Y-88541972D01*
X87606732Y-88529712D01*
X87726430Y-88493402D01*
X87836744Y-88434437D01*
X87933435Y-88355085D01*
X88012787Y-88258394D01*
X88071752Y-88148080D01*
X88077306Y-88129773D01*
X88143745Y-88196212D01*
X88395155Y-88364199D01*
X88674507Y-88479911D01*
X88971066Y-88538900D01*
X89273434Y-88538900D01*
X89569993Y-88479911D01*
X89849345Y-88364199D01*
X90100755Y-88196212D01*
X90314562Y-87982405D01*
X90482549Y-87730995D01*
X90598261Y-87451643D01*
X90657250Y-87155084D01*
X90657250Y-86852716D01*
X90598261Y-86556157D01*
X90482549Y-86276805D01*
X90314562Y-86025395D01*
X90100755Y-85811588D01*
X89849345Y-85643601D01*
X89569993Y-85527889D01*
X89273434Y-85468900D01*
X88971066Y-85468900D01*
X88674507Y-85527889D01*
X88395155Y-85643601D01*
X88143745Y-85811588D01*
X88077306Y-85878027D01*
X88071752Y-85859720D01*
X88012787Y-85749406D01*
X87933435Y-85652715D01*
X87836744Y-85573363D01*
X87726430Y-85514398D01*
X87606732Y-85478088D01*
X87482250Y-85465828D01*
X85682250Y-85465828D01*
X85557768Y-85478088D01*
X85438070Y-85514398D01*
X85327756Y-85573363D01*
X85231065Y-85652715D01*
X85151713Y-85749406D01*
X85092748Y-85859720D01*
X85056438Y-85979418D01*
X85044178Y-86103900D01*
X79966420Y-86103900D01*
X79966420Y-82618180D01*
X88637960Y-82618180D01*
X88635000Y-82633061D01*
%TA.AperFunction,Conductor*%
D15*
G36*
X88635000Y-82633061D02*
G01*
X88635000Y-82836939D01*
X88674774Y-83036898D01*
X88752795Y-83225256D01*
X88866063Y-83394774D01*
X89010226Y-83538937D01*
X89179744Y-83652205D01*
X89368102Y-83730226D01*
X89568061Y-83770000D01*
X89771939Y-83770000D01*
X89971898Y-83730226D01*
X90160256Y-83652205D01*
X90329774Y-83538937D01*
X90373711Y-83495000D01*
X93765197Y-83495000D01*
X95485000Y-85214804D01*
X95485000Y-85276941D01*
X95522572Y-85465828D01*
X94215380Y-85465828D01*
X94090898Y-85478088D01*
X93971200Y-85514398D01*
X93860886Y-85573363D01*
X93764195Y-85652715D01*
X93684843Y-85749406D01*
X93625878Y-85859720D01*
X93589568Y-85979418D01*
X93577308Y-86103900D01*
X93577308Y-87903900D01*
X93589568Y-88028382D01*
X93625878Y-88148080D01*
X93684843Y-88258394D01*
X93764195Y-88355085D01*
X93860886Y-88434437D01*
X93971200Y-88493402D01*
X94090898Y-88529712D01*
X94215380Y-88541972D01*
X96015380Y-88541972D01*
X96139862Y-88529712D01*
X96259560Y-88493402D01*
X96369874Y-88434437D01*
X96466565Y-88355085D01*
X96545917Y-88258394D01*
X96604882Y-88148080D01*
X96610436Y-88129773D01*
X96676875Y-88196212D01*
X96928285Y-88364199D01*
X97207637Y-88479911D01*
X97504196Y-88538900D01*
X97806564Y-88538900D01*
X98103123Y-88479911D01*
X98382475Y-88364199D01*
X98420001Y-88339125D01*
X98420001Y-89217120D01*
X98378102Y-89225454D01*
X98189744Y-89303475D01*
X98020226Y-89416743D01*
X97876063Y-89560906D01*
X97762795Y-89730424D01*
X97684774Y-89918782D01*
X97645000Y-90118741D01*
X97645000Y-90322619D01*
X97684774Y-90522578D01*
X97762795Y-90710936D01*
X97876063Y-90880454D01*
X98020226Y-91024617D01*
X98189744Y-91137885D01*
X98378102Y-91215906D01*
X98578061Y-91255680D01*
X98781939Y-91255680D01*
X98981898Y-91215906D01*
X99170256Y-91137885D01*
X99339774Y-91024617D01*
X99483937Y-90880454D01*
X99597205Y-90710936D01*
X99628967Y-90634256D01*
X99666063Y-90689774D01*
X99810226Y-90833937D01*
X99979744Y-90947205D01*
X100168102Y-91025226D01*
X100368061Y-91065000D01*
X100571939Y-91065000D01*
X100771898Y-91025226D01*
X100960256Y-90947205D01*
X101129774Y-90833937D01*
X101271152Y-90692559D01*
X101316063Y-90759774D01*
X101460226Y-90903937D01*
X101629744Y-91017205D01*
X101818102Y-91095226D01*
X102018061Y-91135000D01*
X102221939Y-91135000D01*
X102421898Y-91095226D01*
X102610256Y-91017205D01*
X102779774Y-90903937D01*
X102923937Y-90759774D01*
X103037205Y-90590256D01*
X103115226Y-90401898D01*
X103155000Y-90201939D01*
X103155000Y-90183545D01*
X103168102Y-90188972D01*
X103368061Y-90228746D01*
X103571939Y-90228746D01*
X103771898Y-90188972D01*
X103960256Y-90110951D01*
X104129774Y-89997683D01*
X104200844Y-89926613D01*
X104290911Y-89899292D01*
X104422940Y-89828720D01*
X104538665Y-89733747D01*
X104562468Y-89704743D01*
X105779580Y-88487631D01*
X106037326Y-88538900D01*
X106339694Y-88538900D01*
X106636253Y-88479911D01*
X106915605Y-88364199D01*
X107167015Y-88196212D01*
X107380822Y-87982405D01*
X107548809Y-87730995D01*
X107664521Y-87451643D01*
X107723510Y-87155084D01*
X107723510Y-86852716D01*
X107664521Y-86556157D01*
X107548809Y-86276805D01*
X107380822Y-86025395D01*
X107167015Y-85811588D01*
X106915605Y-85643601D01*
X106636253Y-85527889D01*
X106339694Y-85468900D01*
X106037326Y-85468900D01*
X105740767Y-85527889D01*
X105461415Y-85643601D01*
X105210005Y-85811588D01*
X105143566Y-85878027D01*
X105138012Y-85859720D01*
X105079047Y-85749406D01*
X104999695Y-85652715D01*
X104903004Y-85573363D01*
X104792690Y-85514398D01*
X104672992Y-85478088D01*
X104548510Y-85465828D01*
X102830000Y-85465828D01*
X102830000Y-84473711D01*
X102873937Y-84429774D01*
X102987205Y-84260256D01*
X103065226Y-84071898D01*
X103105000Y-83871939D01*
X103105000Y-83668061D01*
X103065226Y-83468102D01*
X102987205Y-83279744D01*
X102873937Y-83110226D01*
X102729774Y-82966063D01*
X102560256Y-82852795D01*
X102371898Y-82774774D01*
X102171939Y-82735000D01*
X101968061Y-82735000D01*
X101768102Y-82774774D01*
X101579744Y-82852795D01*
X101410226Y-82966063D01*
X101266063Y-83110226D01*
X101152795Y-83279744D01*
X101074774Y-83468102D01*
X101035000Y-83668061D01*
X101035000Y-83701291D01*
X100979774Y-83646065D01*
X100810256Y-83532797D01*
X100621898Y-83454776D01*
X100421939Y-83415002D01*
X100218061Y-83415002D01*
X100199224Y-83418749D01*
X100175226Y-83298102D01*
X100097205Y-83109744D01*
X99983937Y-82940226D01*
X99839774Y-82796063D01*
X99670256Y-82682795D01*
X99514263Y-82618180D01*
X114084286Y-82618180D01*
X113967726Y-82696063D01*
X113823563Y-82840226D01*
X113710295Y-83009744D01*
X113632274Y-83198102D01*
X113592500Y-83398061D01*
X113592500Y-83601939D01*
X113632274Y-83801898D01*
X113710295Y-83990256D01*
X113823563Y-84159774D01*
X113961641Y-84297852D01*
X113961640Y-85665587D01*
X113743135Y-85811588D01*
X113676696Y-85878027D01*
X113671142Y-85859720D01*
X113612177Y-85749406D01*
X113532825Y-85652715D01*
X113436134Y-85573363D01*
X113325820Y-85514398D01*
X113206122Y-85478088D01*
X113081640Y-85465828D01*
X111281640Y-85465828D01*
X111270000Y-85466974D01*
X111270000Y-84413711D01*
X111313937Y-84369774D01*
X111427205Y-84200256D01*
X111505226Y-84011898D01*
X111545000Y-83811939D01*
X111545000Y-83608061D01*
X111505226Y-83408102D01*
X111427205Y-83219744D01*
X111313937Y-83050226D01*
X111169774Y-82906063D01*
X111000256Y-82792795D01*
X110811898Y-82714774D01*
X110611939Y-82675000D01*
X110408061Y-82675000D01*
X110208102Y-82714774D01*
X110019744Y-82792795D01*
X109850226Y-82906063D01*
X109706063Y-83050226D01*
X109592795Y-83219744D01*
X109514774Y-83408102D01*
X109475000Y-83608061D01*
X109475000Y-83811939D01*
X109514774Y-84011898D01*
X109592795Y-84200256D01*
X109706063Y-84369774D01*
X109750000Y-84413711D01*
X109750001Y-89759027D01*
X109722795Y-89799744D01*
X109644774Y-89988102D01*
X109605000Y-90188061D01*
X109605000Y-90391939D01*
X109644774Y-90591898D01*
X109722795Y-90780256D01*
X109836063Y-90949774D01*
X109980226Y-91093937D01*
X110149744Y-91207205D01*
X110338102Y-91285226D01*
X110403168Y-91298168D01*
X94316627Y-91298175D01*
X94349801Y-91265000D01*
X94411939Y-91265000D01*
X94611898Y-91225226D01*
X94800256Y-91147205D01*
X94969774Y-91033937D01*
X95113937Y-90889774D01*
X95227205Y-90720256D01*
X95305226Y-90531898D01*
X95345000Y-90331939D01*
X95345000Y-90128061D01*
X95305226Y-89928102D01*
X95227205Y-89739744D01*
X95113937Y-89570226D01*
X94969774Y-89426063D01*
X94800256Y-89312795D01*
X94611898Y-89234774D01*
X94411939Y-89195000D01*
X94208061Y-89195000D01*
X94008102Y-89234774D01*
X93819744Y-89312795D01*
X93650226Y-89426063D01*
X93506063Y-89570226D01*
X93392795Y-89739744D01*
X93314774Y-89928102D01*
X93275000Y-90128061D01*
X93275000Y-90190199D01*
X93045199Y-90420000D01*
X90965630Y-90420000D01*
X90985000Y-90322619D01*
X90985000Y-90260481D01*
X91810128Y-89435354D01*
X91858102Y-89455226D01*
X92058061Y-89495000D01*
X92261939Y-89495000D01*
X92461898Y-89455226D01*
X92650256Y-89377205D01*
X92819774Y-89263937D01*
X92963937Y-89119774D01*
X93077205Y-88950256D01*
X93155226Y-88761898D01*
X93195000Y-88561939D01*
X93195000Y-88358061D01*
X93155226Y-88158102D01*
X93077205Y-87969744D01*
X92963937Y-87800226D01*
X92819774Y-87656063D01*
X92650256Y-87542795D01*
X92461898Y-87464774D01*
X92261939Y-87425000D01*
X92058061Y-87425000D01*
X91858102Y-87464774D01*
X91669744Y-87542795D01*
X91500226Y-87656063D01*
X91382775Y-87773514D01*
X91286404Y-87825026D01*
X91170679Y-87919999D01*
X91146881Y-87948997D01*
X89910199Y-89185680D01*
X89848061Y-89185680D01*
X89648102Y-89225454D01*
X89459744Y-89303475D01*
X89290226Y-89416743D01*
X89146063Y-89560906D01*
X89032795Y-89730424D01*
X88954774Y-89918782D01*
X88915000Y-90118741D01*
X88915000Y-90322619D01*
X88934370Y-90420000D01*
X84778079Y-90420000D01*
X84795256Y-90412885D01*
X84964774Y-90299617D01*
X85108937Y-90155454D01*
X85222205Y-89985936D01*
X85300226Y-89797578D01*
X85340000Y-89597619D01*
X85340000Y-89393741D01*
X85300226Y-89193782D01*
X85222205Y-89005424D01*
X85108937Y-88835906D01*
X84964774Y-88691743D01*
X84795256Y-88578475D01*
X84606898Y-88500454D01*
X84406939Y-88460680D01*
X84203061Y-88460680D01*
X84003102Y-88500454D01*
X83814744Y-88578475D01*
X83645226Y-88691743D01*
X83501063Y-88835906D01*
X83387795Y-89005424D01*
X83309774Y-89193782D01*
X83270000Y-89393741D01*
X83270000Y-89597619D01*
X83309774Y-89797578D01*
X83387795Y-89985936D01*
X83497471Y-90150079D01*
X83471939Y-90145000D01*
X83268061Y-90145000D01*
X83068102Y-90184774D01*
X82879744Y-90262795D01*
X82710226Y-90376063D01*
X82566063Y-90520226D01*
X82452795Y-90689744D01*
X82374774Y-90878102D01*
X82335000Y-91078061D01*
X82335000Y-91281939D01*
X82338230Y-91298180D01*
X79966420Y-91298181D01*
X79966420Y-86103900D01*
X85044178Y-86103900D01*
X85044178Y-87903900D01*
X85056438Y-88028382D01*
X85092748Y-88148080D01*
X85151713Y-88258394D01*
X85231065Y-88355085D01*
X85327756Y-88434437D01*
X85438070Y-88493402D01*
X85557768Y-88529712D01*
X85682250Y-88541972D01*
X87482250Y-88541972D01*
X87606732Y-88529712D01*
X87726430Y-88493402D01*
X87836744Y-88434437D01*
X87933435Y-88355085D01*
X88012787Y-88258394D01*
X88071752Y-88148080D01*
X88077306Y-88129773D01*
X88143745Y-88196212D01*
X88395155Y-88364199D01*
X88674507Y-88479911D01*
X88971066Y-88538900D01*
X89273434Y-88538900D01*
X89569993Y-88479911D01*
X89849345Y-88364199D01*
X90100755Y-88196212D01*
X90314562Y-87982405D01*
X90482549Y-87730995D01*
X90598261Y-87451643D01*
X90657250Y-87155084D01*
X90657250Y-86852716D01*
X90598261Y-86556157D01*
X90482549Y-86276805D01*
X90314562Y-86025395D01*
X90100755Y-85811588D01*
X89849345Y-85643601D01*
X89569993Y-85527889D01*
X89273434Y-85468900D01*
X88971066Y-85468900D01*
X88674507Y-85527889D01*
X88395155Y-85643601D01*
X88143745Y-85811588D01*
X88077306Y-85878027D01*
X88071752Y-85859720D01*
X88012787Y-85749406D01*
X87933435Y-85652715D01*
X87836744Y-85573363D01*
X87726430Y-85514398D01*
X87606732Y-85478088D01*
X87482250Y-85465828D01*
X85682250Y-85465828D01*
X85557768Y-85478088D01*
X85438070Y-85514398D01*
X85327756Y-85573363D01*
X85231065Y-85652715D01*
X85151713Y-85749406D01*
X85092748Y-85859720D01*
X85056438Y-85979418D01*
X85044178Y-86103900D01*
X79966420Y-86103900D01*
X79966420Y-82618180D01*
X88637960Y-82618180D01*
X88635000Y-82633061D01*
G37*
%TD.AperFunction*%
D14*
X129845200Y-91298160D02*
X110876833Y-91298168D01*
X110941898Y-91285226D01*
X111130256Y-91207205D01*
X111299774Y-91093937D01*
X111443937Y-90949774D01*
X111557205Y-90780256D01*
X111635226Y-90591898D01*
X111675000Y-90391939D01*
X111675000Y-90188061D01*
X111635226Y-89988102D01*
X111557205Y-89799744D01*
X111443937Y-89630226D01*
X111299774Y-89486063D01*
X111270000Y-89466169D01*
X111270000Y-88540826D01*
X111281640Y-88541972D01*
X113081640Y-88541972D01*
X113206122Y-88529712D01*
X113325820Y-88493402D01*
X113436134Y-88434437D01*
X113532825Y-88355085D01*
X113612177Y-88258394D01*
X113671142Y-88148080D01*
X113676696Y-88129773D01*
X113743135Y-88196212D01*
X113994545Y-88364199D01*
X114273897Y-88479911D01*
X114570456Y-88538900D01*
X114872824Y-88538900D01*
X115169383Y-88479911D01*
X115448735Y-88364199D01*
X115700145Y-88196212D01*
X115913952Y-87982405D01*
X115962332Y-87910000D01*
X116520001Y-87910000D01*
X116520000Y-88856289D01*
X116476063Y-88900226D01*
X116362795Y-89069744D01*
X116284774Y-89258102D01*
X116245000Y-89458061D01*
X116245000Y-89661939D01*
X116284774Y-89861898D01*
X116362795Y-90050256D01*
X116476063Y-90219774D01*
X116620226Y-90363937D01*
X116789744Y-90477205D01*
X116978102Y-90555226D01*
X117178061Y-90595000D01*
X117381939Y-90595000D01*
X117581898Y-90555226D01*
X117770256Y-90477205D01*
X117939774Y-90363937D01*
X118083937Y-90219774D01*
X118197205Y-90050256D01*
X118275226Y-89861898D01*
X118315000Y-89661939D01*
X118315000Y-89458061D01*
X118275226Y-89258102D01*
X118197205Y-89069744D01*
X118083937Y-88900226D01*
X118040000Y-88856289D01*
X118040000Y-87843711D01*
X118073937Y-87809774D01*
X118187205Y-87640256D01*
X118265226Y-87451898D01*
X118305000Y-87251939D01*
X118305000Y-87048061D01*
X118265226Y-86848102D01*
X118187205Y-86659744D01*
X118073937Y-86490226D01*
X117929774Y-86346063D01*
X117760256Y-86232795D01*
X117571898Y-86154774D01*
X117371939Y-86115000D01*
X117168061Y-86115000D01*
X116968102Y-86154774D01*
X116779744Y-86232795D01*
X116610226Y-86346063D01*
X116566289Y-86390000D01*
X116128826Y-86390000D01*
X116081939Y-86276805D01*
X115966408Y-86103900D01*
X119176698Y-86103900D01*
X119176698Y-87903900D01*
X119188958Y-88028382D01*
X119225268Y-88148080D01*
X119284233Y-88258394D01*
X119363585Y-88355085D01*
X119460276Y-88434437D01*
X119570590Y-88493402D01*
X119690288Y-88529712D01*
X119814770Y-88541972D01*
X121614770Y-88541972D01*
X121739252Y-88529712D01*
X121858950Y-88493402D01*
X121969264Y-88434437D01*
X122065955Y-88355085D01*
X122145307Y-88258394D01*
X122204272Y-88148080D01*
X122209826Y-88129773D01*
X122276265Y-88196212D01*
X122527675Y-88364199D01*
X122560000Y-88377589D01*
X122560000Y-88976289D01*
X122516063Y-89020226D01*
X122402795Y-89189744D01*
X122324774Y-89378102D01*
X122285000Y-89578061D01*
X122285000Y-89781939D01*
X122324774Y-89981898D01*
X122402795Y-90170256D01*
X122516063Y-90339774D01*
X122660226Y-90483937D01*
X122829744Y-90597205D01*
X123018102Y-90675226D01*
X123218061Y-90715000D01*
X123421939Y-90715000D01*
X123621898Y-90675226D01*
X123810256Y-90597205D01*
X123979774Y-90483937D01*
X124123937Y-90339774D01*
X124237205Y-90170256D01*
X124315226Y-89981898D01*
X124355000Y-89781939D01*
X124355000Y-89578061D01*
X124315226Y-89378102D01*
X124237205Y-89189744D01*
X124123937Y-89020226D01*
X124080000Y-88976289D01*
X124080000Y-88298627D01*
X124233275Y-88196212D01*
X124447082Y-87982405D01*
X124615069Y-87730995D01*
X124730781Y-87451643D01*
X124789770Y-87155084D01*
X124789770Y-86852716D01*
X124730781Y-86556157D01*
X124615069Y-86276805D01*
X124447082Y-86025395D01*
X124233275Y-85811588D01*
X123981865Y-85643601D01*
X123702513Y-85527889D01*
X123405954Y-85468900D01*
X123103586Y-85468900D01*
X122807027Y-85527889D01*
X122527675Y-85643601D01*
X122276265Y-85811588D01*
X122209826Y-85878027D01*
X122204272Y-85859720D01*
X122145307Y-85749406D01*
X122065955Y-85652715D01*
X121969264Y-85573363D01*
X121858950Y-85514398D01*
X121739252Y-85478088D01*
X121614770Y-85465828D01*
X119814770Y-85465828D01*
X119690288Y-85478088D01*
X119570590Y-85514398D01*
X119460276Y-85573363D01*
X119363585Y-85652715D01*
X119284233Y-85749406D01*
X119225268Y-85859720D01*
X119188958Y-85979418D01*
X119176698Y-86103900D01*
X115966408Y-86103900D01*
X115913952Y-86025395D01*
X115700145Y-85811588D01*
X115481640Y-85665587D01*
X115481640Y-84084640D01*
X115544705Y-83990256D01*
X115622726Y-83801898D01*
X115662500Y-83601939D01*
X115662500Y-83398061D01*
X115622726Y-83198102D01*
X115544705Y-83009744D01*
X115431437Y-82840226D01*
X115287274Y-82696063D01*
X115170714Y-82618180D01*
X129845201Y-82618180D01*
X129845200Y-91298160D01*
%TA.AperFunction,Conductor*%
D15*
G36*
X129845200Y-91298160D02*
G01*
X110876833Y-91298168D01*
X110941898Y-91285226D01*
X111130256Y-91207205D01*
X111299774Y-91093937D01*
X111443937Y-90949774D01*
X111557205Y-90780256D01*
X111635226Y-90591898D01*
X111675000Y-90391939D01*
X111675000Y-90188061D01*
X111635226Y-89988102D01*
X111557205Y-89799744D01*
X111443937Y-89630226D01*
X111299774Y-89486063D01*
X111270000Y-89466169D01*
X111270000Y-88540826D01*
X111281640Y-88541972D01*
X113081640Y-88541972D01*
X113206122Y-88529712D01*
X113325820Y-88493402D01*
X113436134Y-88434437D01*
X113532825Y-88355085D01*
X113612177Y-88258394D01*
X113671142Y-88148080D01*
X113676696Y-88129773D01*
X113743135Y-88196212D01*
X113994545Y-88364199D01*
X114273897Y-88479911D01*
X114570456Y-88538900D01*
X114872824Y-88538900D01*
X115169383Y-88479911D01*
X115448735Y-88364199D01*
X115700145Y-88196212D01*
X115913952Y-87982405D01*
X115962332Y-87910000D01*
X116520001Y-87910000D01*
X116520000Y-88856289D01*
X116476063Y-88900226D01*
X116362795Y-89069744D01*
X116284774Y-89258102D01*
X116245000Y-89458061D01*
X116245000Y-89661939D01*
X116284774Y-89861898D01*
X116362795Y-90050256D01*
X116476063Y-90219774D01*
X116620226Y-90363937D01*
X116789744Y-90477205D01*
X116978102Y-90555226D01*
X117178061Y-90595000D01*
X117381939Y-90595000D01*
X117581898Y-90555226D01*
X117770256Y-90477205D01*
X117939774Y-90363937D01*
X118083937Y-90219774D01*
X118197205Y-90050256D01*
X118275226Y-89861898D01*
X118315000Y-89661939D01*
X118315000Y-89458061D01*
X118275226Y-89258102D01*
X118197205Y-89069744D01*
X118083937Y-88900226D01*
X118040000Y-88856289D01*
X118040000Y-87843711D01*
X118073937Y-87809774D01*
X118187205Y-87640256D01*
X118265226Y-87451898D01*
X118305000Y-87251939D01*
X118305000Y-87048061D01*
X118265226Y-86848102D01*
X118187205Y-86659744D01*
X118073937Y-86490226D01*
X117929774Y-86346063D01*
X117760256Y-86232795D01*
X117571898Y-86154774D01*
X117371939Y-86115000D01*
X117168061Y-86115000D01*
X116968102Y-86154774D01*
X116779744Y-86232795D01*
X116610226Y-86346063D01*
X116566289Y-86390000D01*
X116128826Y-86390000D01*
X116081939Y-86276805D01*
X115966408Y-86103900D01*
X119176698Y-86103900D01*
X119176698Y-87903900D01*
X119188958Y-88028382D01*
X119225268Y-88148080D01*
X119284233Y-88258394D01*
X119363585Y-88355085D01*
X119460276Y-88434437D01*
X119570590Y-88493402D01*
X119690288Y-88529712D01*
X119814770Y-88541972D01*
X121614770Y-88541972D01*
X121739252Y-88529712D01*
X121858950Y-88493402D01*
X121969264Y-88434437D01*
X122065955Y-88355085D01*
X122145307Y-88258394D01*
X122204272Y-88148080D01*
X122209826Y-88129773D01*
X122276265Y-88196212D01*
X122527675Y-88364199D01*
X122560000Y-88377589D01*
X122560000Y-88976289D01*
X122516063Y-89020226D01*
X122402795Y-89189744D01*
X122324774Y-89378102D01*
X122285000Y-89578061D01*
X122285000Y-89781939D01*
X122324774Y-89981898D01*
X122402795Y-90170256D01*
X122516063Y-90339774D01*
X122660226Y-90483937D01*
X122829744Y-90597205D01*
X123018102Y-90675226D01*
X123218061Y-90715000D01*
X123421939Y-90715000D01*
X123621898Y-90675226D01*
X123810256Y-90597205D01*
X123979774Y-90483937D01*
X124123937Y-90339774D01*
X124237205Y-90170256D01*
X124315226Y-89981898D01*
X124355000Y-89781939D01*
X124355000Y-89578061D01*
X124315226Y-89378102D01*
X124237205Y-89189744D01*
X124123937Y-89020226D01*
X124080000Y-88976289D01*
X124080000Y-88298627D01*
X124233275Y-88196212D01*
X124447082Y-87982405D01*
X124615069Y-87730995D01*
X124730781Y-87451643D01*
X124789770Y-87155084D01*
X124789770Y-86852716D01*
X124730781Y-86556157D01*
X124615069Y-86276805D01*
X124447082Y-86025395D01*
X124233275Y-85811588D01*
X123981865Y-85643601D01*
X123702513Y-85527889D01*
X123405954Y-85468900D01*
X123103586Y-85468900D01*
X122807027Y-85527889D01*
X122527675Y-85643601D01*
X122276265Y-85811588D01*
X122209826Y-85878027D01*
X122204272Y-85859720D01*
X122145307Y-85749406D01*
X122065955Y-85652715D01*
X121969264Y-85573363D01*
X121858950Y-85514398D01*
X121739252Y-85478088D01*
X121614770Y-85465828D01*
X119814770Y-85465828D01*
X119690288Y-85478088D01*
X119570590Y-85514398D01*
X119460276Y-85573363D01*
X119363585Y-85652715D01*
X119284233Y-85749406D01*
X119225268Y-85859720D01*
X119188958Y-85979418D01*
X119176698Y-86103900D01*
X115966408Y-86103900D01*
X115913952Y-86025395D01*
X115700145Y-85811588D01*
X115481640Y-85665587D01*
X115481640Y-84084640D01*
X115544705Y-83990256D01*
X115622726Y-83801898D01*
X115662500Y-83601939D01*
X115662500Y-83398061D01*
X115622726Y-83198102D01*
X115544705Y-83009744D01*
X115431437Y-82840226D01*
X115287274Y-82696063D01*
X115170714Y-82618180D01*
X129845201Y-82618180D01*
X129845200Y-91298160D01*
G37*
%TD.AperFunction*%
D14*
X98689744Y-82682795D02*
X98520226Y-82796063D01*
X98376063Y-82940226D01*
X98262795Y-83109744D01*
X98184774Y-83298102D01*
X98145000Y-83498061D01*
X98145000Y-83701939D01*
X98184774Y-83901898D01*
X98262795Y-84090256D01*
X98376063Y-84259774D01*
X98420000Y-84303711D01*
X98420000Y-85668675D01*
X98382475Y-85643601D01*
X98103123Y-85527889D01*
X97806564Y-85468900D01*
X97516817Y-85468900D01*
X97555000Y-85276941D01*
X97555000Y-85073063D01*
X97515226Y-84873104D01*
X97437205Y-84684746D01*
X97323937Y-84515228D01*
X97179774Y-84371065D01*
X97010256Y-84257797D01*
X96821898Y-84179776D01*
X96621939Y-84140002D01*
X96559802Y-84140002D01*
X95037979Y-82618180D01*
X98845737Y-82618180D01*
X98689744Y-82682795D01*
%TA.AperFunction,Conductor*%
D15*
G36*
X98689744Y-82682795D02*
G01*
X98520226Y-82796063D01*
X98376063Y-82940226D01*
X98262795Y-83109744D01*
X98184774Y-83298102D01*
X98145000Y-83498061D01*
X98145000Y-83701939D01*
X98184774Y-83901898D01*
X98262795Y-84090256D01*
X98376063Y-84259774D01*
X98420000Y-84303711D01*
X98420000Y-85668675D01*
X98382475Y-85643601D01*
X98103123Y-85527889D01*
X97806564Y-85468900D01*
X97516817Y-85468900D01*
X97555000Y-85276941D01*
X97555000Y-85073063D01*
X97515226Y-84873104D01*
X97437205Y-84684746D01*
X97323937Y-84515228D01*
X97179774Y-84371065D01*
X97010256Y-84257797D01*
X96821898Y-84179776D01*
X96621939Y-84140002D01*
X96559802Y-84140002D01*
X95037979Y-82618180D01*
X98845737Y-82618180D01*
X98689744Y-82682795D01*
G37*
%TD.AperFunction*%
%TD*%
M02*
