%TF.GenerationSoftware,KiCad,Pcbnew,(5.1.9-0-10_14)*%
%TF.CreationDate,2021-02-05T19:11:18-05:00*%
%TF.ProjectId,atreus_trackpoint,61747265-7573-45f7-9472-61636b706f69,rev?*%
%TF.SameCoordinates,Original*%
%TF.FileFunction,Paste,Bot*%
%TF.FilePolarity,Positive*%
%FSLAX46Y46*%
G04 Gerber Fmt 4.6, Leading zero omitted, Abs format (unit mm)*
G04 Created by KiCad (PCBNEW (5.1.9-0-10_14)) date 2021-02-05 19:11:18*
%MOMM*%
%LPD*%
G01*
G04 APERTURE LIST*
G04 APERTURE END LIST*
%TO.C,C1*%
G36*
G01*
X92785000Y-86285000D02*
X91535000Y-86285000D01*
G75*
G02*
X91285000Y-86035000I0J250000D01*
G01*
X91285000Y-85285000D01*
G75*
G02*
X91535000Y-85035000I250000J0D01*
G01*
X92785000Y-85035000D01*
G75*
G02*
X93035000Y-85285000I0J-250000D01*
G01*
X93035000Y-86035000D01*
G75*
G02*
X92785000Y-86285000I-250000J0D01*
G01*
G37*
G36*
G01*
X92785000Y-89085000D02*
X91535000Y-89085000D01*
G75*
G02*
X91285000Y-88835000I0J250000D01*
G01*
X91285000Y-88085000D01*
G75*
G02*
X91535000Y-87835000I250000J0D01*
G01*
X92785000Y-87835000D01*
G75*
G02*
X93035000Y-88085000I0J-250000D01*
G01*
X93035000Y-88835000D01*
G75*
G02*
X92785000Y-89085000I-250000J0D01*
G01*
G37*
%TD*%
%TO.C,R1*%
G36*
G01*
X92620000Y-83916250D02*
X92620000Y-83003750D01*
G75*
G02*
X92863750Y-82760000I243750J0D01*
G01*
X93351250Y-82760000D01*
G75*
G02*
X93595000Y-83003750I0J-243750D01*
G01*
X93595000Y-83916250D01*
G75*
G02*
X93351250Y-84160000I-243750J0D01*
G01*
X92863750Y-84160000D01*
G75*
G02*
X92620000Y-83916250I0J243750D01*
G01*
G37*
G36*
G01*
X90745000Y-83916250D02*
X90745000Y-83003750D01*
G75*
G02*
X90988750Y-82760000I243750J0D01*
G01*
X91476250Y-82760000D01*
G75*
G02*
X91720000Y-83003750I0J-243750D01*
G01*
X91720000Y-83916250D01*
G75*
G02*
X91476250Y-84160000I-243750J0D01*
G01*
X90988750Y-84160000D01*
G75*
G02*
X90745000Y-83916250I0J243750D01*
G01*
G37*
%TD*%
%TO.C,R2*%
G36*
G01*
X113240000Y-83043750D02*
X113240000Y-83956250D01*
G75*
G02*
X112996250Y-84200000I-243750J0D01*
G01*
X112508750Y-84200000D01*
G75*
G02*
X112265000Y-83956250I0J243750D01*
G01*
X112265000Y-83043750D01*
G75*
G02*
X112508750Y-82800000I243750J0D01*
G01*
X112996250Y-82800000D01*
G75*
G02*
X113240000Y-83043750I0J-243750D01*
G01*
G37*
G36*
G01*
X115115000Y-83043750D02*
X115115000Y-83956250D01*
G75*
G02*
X114871250Y-84200000I-243750J0D01*
G01*
X114383750Y-84200000D01*
G75*
G02*
X114140000Y-83956250I0J243750D01*
G01*
X114140000Y-83043750D01*
G75*
G02*
X114383750Y-82800000I243750J0D01*
G01*
X114871250Y-82800000D01*
G75*
G02*
X115115000Y-83043750I0J-243750D01*
G01*
G37*
%TD*%
%TO.C,R3*%
G36*
G01*
X92550000Y-91106250D02*
X92550000Y-90193750D01*
G75*
G02*
X92793750Y-89950000I243750J0D01*
G01*
X93281250Y-89950000D01*
G75*
G02*
X93525000Y-90193750I0J-243750D01*
G01*
X93525000Y-91106250D01*
G75*
G02*
X93281250Y-91350000I-243750J0D01*
G01*
X92793750Y-91350000D01*
G75*
G02*
X92550000Y-91106250I0J243750D01*
G01*
G37*
G36*
G01*
X90675000Y-91106250D02*
X90675000Y-90193750D01*
G75*
G02*
X90918750Y-89950000I243750J0D01*
G01*
X91406250Y-89950000D01*
G75*
G02*
X91650000Y-90193750I0J-243750D01*
G01*
X91650000Y-91106250D01*
G75*
G02*
X91406250Y-91350000I-243750J0D01*
G01*
X90918750Y-91350000D01*
G75*
G02*
X90675000Y-91106250I0J243750D01*
G01*
G37*
%TD*%
%TO.C,U1*%
G36*
G01*
X80332500Y-88508180D02*
X80657500Y-88508180D01*
G75*
G02*
X80820000Y-88670680I0J-162500D01*
G01*
X80820000Y-90320680D01*
G75*
G02*
X80657500Y-90483180I-162500J0D01*
G01*
X80332500Y-90483180D01*
G75*
G02*
X80170000Y-90320680I0J162500D01*
G01*
X80170000Y-88670680D01*
G75*
G02*
X80332500Y-88508180I162500J0D01*
G01*
G37*
G36*
G01*
X81602500Y-88508180D02*
X81927500Y-88508180D01*
G75*
G02*
X82090000Y-88670680I0J-162500D01*
G01*
X82090000Y-90320680D01*
G75*
G02*
X81927500Y-90483180I-162500J0D01*
G01*
X81602500Y-90483180D01*
G75*
G02*
X81440000Y-90320680I0J162500D01*
G01*
X81440000Y-88670680D01*
G75*
G02*
X81602500Y-88508180I162500J0D01*
G01*
G37*
G36*
G01*
X82872500Y-88508180D02*
X83197500Y-88508180D01*
G75*
G02*
X83360000Y-88670680I0J-162500D01*
G01*
X83360000Y-90320680D01*
G75*
G02*
X83197500Y-90483180I-162500J0D01*
G01*
X82872500Y-90483180D01*
G75*
G02*
X82710000Y-90320680I0J162500D01*
G01*
X82710000Y-88670680D01*
G75*
G02*
X82872500Y-88508180I162500J0D01*
G01*
G37*
G36*
G01*
X84142500Y-88508180D02*
X84467500Y-88508180D01*
G75*
G02*
X84630000Y-88670680I0J-162500D01*
G01*
X84630000Y-90320680D01*
G75*
G02*
X84467500Y-90483180I-162500J0D01*
G01*
X84142500Y-90483180D01*
G75*
G02*
X83980000Y-90320680I0J162500D01*
G01*
X83980000Y-88670680D01*
G75*
G02*
X84142500Y-88508180I162500J0D01*
G01*
G37*
G36*
G01*
X84142500Y-83433180D02*
X84467500Y-83433180D01*
G75*
G02*
X84630000Y-83595680I0J-162500D01*
G01*
X84630000Y-85245680D01*
G75*
G02*
X84467500Y-85408180I-162500J0D01*
G01*
X84142500Y-85408180D01*
G75*
G02*
X83980000Y-85245680I0J162500D01*
G01*
X83980000Y-83595680D01*
G75*
G02*
X84142500Y-83433180I162500J0D01*
G01*
G37*
G36*
G01*
X82872500Y-83433180D02*
X83197500Y-83433180D01*
G75*
G02*
X83360000Y-83595680I0J-162500D01*
G01*
X83360000Y-85245680D01*
G75*
G02*
X83197500Y-85408180I-162500J0D01*
G01*
X82872500Y-85408180D01*
G75*
G02*
X82710000Y-85245680I0J162500D01*
G01*
X82710000Y-83595680D01*
G75*
G02*
X82872500Y-83433180I162500J0D01*
G01*
G37*
G36*
G01*
X81602500Y-83433180D02*
X81927500Y-83433180D01*
G75*
G02*
X82090000Y-83595680I0J-162500D01*
G01*
X82090000Y-85245680D01*
G75*
G02*
X81927500Y-85408180I-162500J0D01*
G01*
X81602500Y-85408180D01*
G75*
G02*
X81440000Y-85245680I0J162500D01*
G01*
X81440000Y-83595680D01*
G75*
G02*
X81602500Y-83433180I162500J0D01*
G01*
G37*
G36*
G01*
X80332500Y-83433180D02*
X80657500Y-83433180D01*
G75*
G02*
X80820000Y-83595680I0J-162500D01*
G01*
X80820000Y-85245680D01*
G75*
G02*
X80657500Y-85408180I-162500J0D01*
G01*
X80332500Y-85408180D01*
G75*
G02*
X80170000Y-85245680I0J162500D01*
G01*
X80170000Y-83595680D01*
G75*
G02*
X80332500Y-83433180I162500J0D01*
G01*
G37*
%TD*%
%TO.C,U2*%
G36*
G01*
X125412500Y-88508180D02*
X125737500Y-88508180D01*
G75*
G02*
X125900000Y-88670680I0J-162500D01*
G01*
X125900000Y-90320680D01*
G75*
G02*
X125737500Y-90483180I-162500J0D01*
G01*
X125412500Y-90483180D01*
G75*
G02*
X125250000Y-90320680I0J162500D01*
G01*
X125250000Y-88670680D01*
G75*
G02*
X125412500Y-88508180I162500J0D01*
G01*
G37*
G36*
G01*
X126682500Y-88508180D02*
X127007500Y-88508180D01*
G75*
G02*
X127170000Y-88670680I0J-162500D01*
G01*
X127170000Y-90320680D01*
G75*
G02*
X127007500Y-90483180I-162500J0D01*
G01*
X126682500Y-90483180D01*
G75*
G02*
X126520000Y-90320680I0J162500D01*
G01*
X126520000Y-88670680D01*
G75*
G02*
X126682500Y-88508180I162500J0D01*
G01*
G37*
G36*
G01*
X127952500Y-88508180D02*
X128277500Y-88508180D01*
G75*
G02*
X128440000Y-88670680I0J-162500D01*
G01*
X128440000Y-90320680D01*
G75*
G02*
X128277500Y-90483180I-162500J0D01*
G01*
X127952500Y-90483180D01*
G75*
G02*
X127790000Y-90320680I0J162500D01*
G01*
X127790000Y-88670680D01*
G75*
G02*
X127952500Y-88508180I162500J0D01*
G01*
G37*
G36*
G01*
X129222500Y-88508180D02*
X129547500Y-88508180D01*
G75*
G02*
X129710000Y-88670680I0J-162500D01*
G01*
X129710000Y-90320680D01*
G75*
G02*
X129547500Y-90483180I-162500J0D01*
G01*
X129222500Y-90483180D01*
G75*
G02*
X129060000Y-90320680I0J162500D01*
G01*
X129060000Y-88670680D01*
G75*
G02*
X129222500Y-88508180I162500J0D01*
G01*
G37*
G36*
G01*
X129222500Y-83433180D02*
X129547500Y-83433180D01*
G75*
G02*
X129710000Y-83595680I0J-162500D01*
G01*
X129710000Y-85245680D01*
G75*
G02*
X129547500Y-85408180I-162500J0D01*
G01*
X129222500Y-85408180D01*
G75*
G02*
X129060000Y-85245680I0J162500D01*
G01*
X129060000Y-83595680D01*
G75*
G02*
X129222500Y-83433180I162500J0D01*
G01*
G37*
G36*
G01*
X127952500Y-83433180D02*
X128277500Y-83433180D01*
G75*
G02*
X128440000Y-83595680I0J-162500D01*
G01*
X128440000Y-85245680D01*
G75*
G02*
X128277500Y-85408180I-162500J0D01*
G01*
X127952500Y-85408180D01*
G75*
G02*
X127790000Y-85245680I0J162500D01*
G01*
X127790000Y-83595680D01*
G75*
G02*
X127952500Y-83433180I162500J0D01*
G01*
G37*
G36*
G01*
X126682500Y-83433180D02*
X127007500Y-83433180D01*
G75*
G02*
X127170000Y-83595680I0J-162500D01*
G01*
X127170000Y-85245680D01*
G75*
G02*
X127007500Y-85408180I-162500J0D01*
G01*
X126682500Y-85408180D01*
G75*
G02*
X126520000Y-85245680I0J162500D01*
G01*
X126520000Y-83595680D01*
G75*
G02*
X126682500Y-83433180I162500J0D01*
G01*
G37*
G36*
G01*
X125412500Y-83433180D02*
X125737500Y-83433180D01*
G75*
G02*
X125900000Y-83595680I0J-162500D01*
G01*
X125900000Y-85245680D01*
G75*
G02*
X125737500Y-85408180I-162500J0D01*
G01*
X125412500Y-85408180D01*
G75*
G02*
X125250000Y-85245680I0J162500D01*
G01*
X125250000Y-83595680D01*
G75*
G02*
X125412500Y-83433180I162500J0D01*
G01*
G37*
%TD*%
M02*
